<svg width="20" height="22" viewBox="0 0 20 22" fill="none" xmlns="http://www.w3.org/2000/svg">
<path d="M10.2795 2.22241C10.2001 2.22241 10.1207 2.23241 10.0412 2.23241L10.8553 1.21241C11.1135 0.892415 11.0638 0.412415 10.7362 0.162415C10.6599 0.101313 10.5725 0.0559462 10.4788 0.0289071C10.3851 0.00186807 10.2871 -0.00631314 10.1903 0.00483113C10.0935 0.0159754 9.99979 0.0462266 9.91459 0.0938559C9.82939 0.141485 9.75434 0.205559 9.69374 0.282415L7.73787 2.74241C7.72794 2.75241 7.72794 2.76241 7.71801 2.78241C7.68823 2.82241 7.66837 2.87241 7.64851 2.91241C7.62866 2.96241 7.6088 3.00241 7.59887 3.04241C7.58895 3.09241 7.58894 3.13241 7.58894 3.18241V3.38241C7.59887 3.41241 7.61873 3.43241 7.62866 3.46241C7.64851 3.51241 7.66837 3.55241 7.68823 3.60241C7.71801 3.64241 7.7478 3.68241 7.78751 3.71241C7.80737 3.74241 7.8173 3.77241 7.84708 3.79241C7.86694 3.80241 7.87686 3.81241 7.89672 3.82241C7.91658 3.84241 7.94636 3.85241 7.97615 3.86241C8.02579 3.89241 8.08536 3.91241 8.135 3.92241C8.17471 3.94241 8.2045 3.94241 8.23428 3.94241C8.26407 3.94241 8.28392 3.95241 8.31371 3.95241C8.34349 3.95241 8.36335 3.94241 8.38321 3.93241C8.41299 3.93241 8.44278 3.94241 8.47256 3.93241C9.10797 3.78241 9.70366 3.71241 10.2696 3.71241C14.7274 3.71241 18.3512 7.36241 18.3512 11.8524C18.3512 16.3424 14.7274 19.9924 10.2696 19.9924C5.81179 19.9924 2.18797 16.3424 2.18797 11.8524C2.18797 10.1124 2.75388 8.43242 3.82613 6.99241C3.94462 6.83329 3.9955 6.63326 3.96757 6.43635C3.93964 6.23944 3.8352 6.06176 3.67721 5.94241C3.51922 5.82307 3.32063 5.77182 3.12513 5.79995C2.92963 5.82808 2.75323 5.93328 2.63474 6.09241C1.36392 7.79241 0.69873 9.78241 0.69873 11.8524C0.69873 17.1624 4.98774 21.4924 10.2696 21.4924C15.5514 21.4924 19.8404 17.1724 19.8404 11.8524C19.8404 6.53241 15.5514 2.22241 10.2795 2.22241Z" fill="black"/>
</svg>
