<svg width="12" height="14" viewBox="0 0 12 14" fill="none" xmlns="http://www.w3.org/2000/svg">
<path d="M11.6666 9.66666V11.3333C11.6666 12.62 10.6199 13.6667 9.33325 13.6667H2.66659C1.37992 13.6667 0.333252 12.62 0.333252 11.3333V10.9C0.333252 9.85333 1.18659 8.99999 2.23325 8.99999H10.9999C11.3666 8.99999 11.6666 9.29999 11.6666 9.66666ZM8.33325 0.333328H3.66658C0.999919 0.333328 0.333252 0.999995 0.333252 3.66666V8.71999C0.839919 8.27333 1.50659 7.99999 2.23325 7.99999H10.9999C11.3666 7.99999 11.6666 7.69999 11.6666 7.33333V3.66666C11.6666 0.999995 10.9999 0.333328 8.33325 0.333328ZM6.66658 6.16666H3.33325C3.05992 6.16666 2.83325 5.93999 2.83325 5.66666C2.83325 5.39333 3.05992 5.16666 3.33325 5.16666H6.66658C6.93992 5.16666 7.16658 5.39333 7.16658 5.66666C7.16658 5.93999 6.93992 6.16666 6.66658 6.16666ZM8.66658 3.83333H3.33325C3.05992 3.83333 2.83325 3.60666 2.83325 3.33333C2.83325 3.05999 3.05992 2.83333 3.33325 2.83333H8.66658C8.93992 2.83333 9.16658 3.05999 9.16658 3.33333C9.16658 3.60666 8.93992 3.83333 8.66658 3.83333Z" fill="black"/>
</svg>
