<svg width="35" height="15" viewBox="0 0 35 15" fill="none" xmlns="http://www.w3.org/2000/svg">
<path d="M15.491 6.1118L15.491 2.423C15.491 1.64536 16.1047 1.02724 16.8768 1.0073C17.0945 1.0073 17.3024 0.997326 17.5201 0.997326C19.5287 1.00406 21.5339 1.16404 23.5185 1.47587C25.4585 1.7949 27.2402 2.27345 28.8338 2.92149C30.4274 3.58946 31.7439 4.43689 32.7733 5.47374C33.4464 6.15168 33.971 6.91935 34.3273 7.75681C34.6936 8.60424 34.8717 9.54139 34.842 10.5683C34.8321 11.8344 34.4461 12.8414 33.7136 13.5791C33.4365 13.8583 33.0999 14.0776 32.7337 14.2072C32.3576 14.3468 31.9517 14.3967 31.5162 14.3169L25.9831 13.3698C25.5575 13.3 25.2012 13.2003 24.8943 13.0707C24.5974 12.951 24.34 12.7915 24.1519 12.6021C23.9144 12.3628 23.7461 12.0538 23.657 11.6849C23.5581 11.326 23.5086 10.8973 23.5086 10.4187L23.4789 8.87342C23.4789 8.65408 23.3997 8.47463 23.2413 8.31511C23.1621 8.23535 23.0829 8.17554 22.984 8.11572C22.8751 8.06587 22.786 8.03596 22.7068 7.99608C22.202 7.84654 21.4695 7.7269 20.5193 7.64714C19.5592 7.57735 18.5595 7.5275 17.5201 7.51753C17.3222 7.51753 17.1143 7.5275 16.9164 7.5275C16.1344 7.53747 15.491 6.90938 15.491 6.1118ZM1.33656 13.629C0.964312 13.2514 0.680279 12.795 0.505107 12.293C0.317041 11.7646 0.19826 11.2063 0.168565 10.5982C0.119074 9.5713 0.267548 8.64411 0.623885 7.78671C0.633782 7.77674 0.633784 7.75681 0.643682 7.74684C0.990119 6.91935 1.49493 6.15168 2.1779 5.46377C3.18752 4.44685 4.50399 3.59942 6.12729 2.94142C7.7506 2.28342 9.54218 1.7949 11.4921 1.48584C12.1652 1.38614 12.8383 1.28645 13.5114 1.22663L13.5114 7.74684C13.0264 7.81663 12.6205 7.90635 12.3038 8.00605C12.2345 8.03596 12.1454 8.06587 12.0464 8.10575C11.9375 8.1556 11.8485 8.22538 11.7594 8.31511C11.5911 8.4846 11.5218 8.67402 11.5218 8.89336L11.5119 10.3988C11.5119 10.8973 11.4624 11.326 11.3536 11.6749C11.2645 12.0438 11.1061 12.3429 10.8586 12.5921C10.6706 12.7816 10.433 12.9411 10.1262 13.0707C9.81933 13.2003 9.46299 13.3 9.04727 13.3797L3.44488 14.3368C3.00936 14.4166 2.62333 14.3867 2.26699 14.2471C1.92055 14.0976 1.61371 13.9081 1.33656 13.629Z" fill="white"/>
</svg>
