<svg width="14" height="14" viewBox="0 0 14 14" fill="none" xmlns="http://www.w3.org/2000/svg">
<path d="M9.8 0H4.2C1.4 0 0 1.39581 0 4.18744V7.67697C0 11.1665 1.4 11.8644 4.2 11.8644H4.55C4.746 11.8644 4.998 11.99 5.11 12.1436L6.16 13.5394C6.622 14.1535 7.378 14.1535 7.84 13.5394L8.89 12.1436C9.023 11.9691 9.233 11.8644 9.45 11.8644H9.8C12.6 11.8644 14 10.4686 14 7.67697V4.18744C14 1.39581 12.6 0 9.8 0ZM4.571 7.11864C4.774 7.32104 4.774 7.65603 4.571 7.85843C4.466 7.96311 4.333 8.01196 4.2 8.01196C4.067 8.01196 3.934 7.96311 3.829 7.85843L2.429 6.46261C2.33136 6.36411 2.27661 6.23121 2.27661 6.09272C2.27661 5.95424 2.33136 5.82133 2.429 5.72283L3.829 4.32702C4.032 4.12463 4.368 4.12463 4.571 4.32702C4.774 4.52941 4.774 4.86441 4.571 5.0668L3.542 6.09272L4.571 7.11864ZM8.183 4.66899L6.783 7.92822C6.699 8.12363 6.503 8.24227 6.3 8.24227C6.21235 8.24349 6.1258 8.22265 6.04836 8.18169C5.97093 8.14073 5.90509 8.08096 5.85695 8.00792C5.80881 7.93488 5.77991 7.85092 5.77293 7.7638C5.76595 7.67668 5.7811 7.58921 5.817 7.50947L7.217 4.25025C7.329 3.98505 7.637 3.85942 7.91 3.97807C8.176 4.09671 8.295 4.40379 8.183 4.66899ZM11.571 6.46261L10.171 7.85843C10.066 7.96311 9.933 8.01196 9.8 8.01196C9.667 8.01196 9.534 7.96311 9.429 7.85843C9.33136 7.75992 9.27661 7.62702 9.27661 7.48853C9.27661 7.35005 9.33136 7.21715 9.429 7.11864L10.458 6.09272L9.429 5.0668C9.33136 4.9683 9.27661 4.8354 9.27661 4.69691C9.27661 4.55842 9.33136 4.42552 9.429 4.32702C9.632 4.12463 9.968 4.12463 10.171 4.32702L11.571 5.72283C11.774 5.92522 11.774 6.26022 11.571 6.46261Z" fill="black"/>
</svg>
