<svg width="21" height="20" viewBox="0 0 21 20" fill="none" xmlns="http://www.w3.org/2000/svg">
<path d="M6.91057 16.2251V6.06508C6.91057 5.66508 7.02971 5.27508 7.24813 4.94508L9.95854 0.885083C10.3855 0.235083 11.4478 -0.224917 12.3513 0.115083C13.3242 0.445083 13.9696 1.54508 13.7611 2.52508L13.2448 5.79508C13.2051 6.09508 13.2845 6.36508 13.4533 6.57508C13.6221 6.76508 13.8703 6.88508 14.1383 6.88508H18.2189C19.0032 6.88508 19.6783 7.20508 20.0754 7.76508C20.4527 8.30508 20.5222 9.00508 20.274 9.71508L17.8317 17.2051C17.5239 18.4451 16.1836 19.4551 14.8532 19.4551H10.9812C10.316 19.4551 9.3827 19.2251 8.95579 18.7951L7.68497 17.8051C7.19849 17.4351 6.91057 16.8451 6.91057 16.2251ZM3.75338 4.11408H2.73077C1.19189 4.11408 0.566406 4.71408 0.566406 6.19408V16.2541C0.566406 17.7341 1.19189 18.3341 2.73077 18.3341H3.75338C5.29226 18.3341 5.91774 17.7341 5.91774 16.2541V6.19408C5.91774 4.71408 5.29226 4.11408 3.75338 4.11408Z" fill="black"/>
</svg>
