<svg width="25" height="25" viewBox="0 0 25 25" fill="none" xmlns="http://www.w3.org/2000/svg">
<path d="M19.7086 7.70093C19.7105 9.28106 19.1929 10.8178 18.236 12.0738C17.279 13.3298 15.9359 14.2351 14.4141 14.6498C13.8152 14.8179 13.1803 14.9019 12.5215 14.9019C11.8627 14.9019 11.2279 14.8179 10.6289 14.6498C9.10715 14.2351 7.76403 13.3298 6.80707 12.0738C5.85012 10.8178 5.3326 9.28106 5.33448 7.70093C5.33448 3.72842 8.55667 0.5 12.5215 0.5C16.4864 0.5 19.7086 3.72842 19.7086 7.70093ZM24.5 17.3022C24.4985 18.4665 24.2155 19.6131 23.6752 20.644C23.1348 21.6748 22.3533 22.5591 21.3974 23.2212C20.4415 23.8834 19.3397 24.3036 18.1864 24.4459C17.033 24.5883 15.8624 24.4485 14.7747 24.0386C14.3926 23.8934 14.3219 23.4038 14.5878 23.0929C15.9639 21.479 16.7181 19.4249 16.714 17.3022C16.714 16.8941 16.678 16.4861 16.6182 16.102C16.6021 15.9937 16.6196 15.8831 16.6685 15.7852C16.7174 15.6873 16.7951 15.6068 16.8913 15.5547C18.487 14.6709 19.7742 13.3185 20.5794 11.6794C20.7399 11.353 21.1424 11.209 21.4395 11.419C22.3834 12.0813 23.1543 12.9615 23.687 13.9853C24.2197 15.0091 24.4986 16.1464 24.5 17.301V17.3022Z" fill="url(#paint0_linear_139_2)"/>
<path d="M14.8741 17.2958C14.8741 19.42 13.9518 21.3403 12.4784 22.6485C11.1672 23.8415 9.45831 24.5007 7.68705 24.4967C3.7222 24.4967 0.5 21.2683 0.5 17.2958C0.500721 16.1406 0.77924 15.0025 1.31198 13.9781C1.84471 12.9536 2.61598 12.0728 3.56049 11.4102C3.85875 11.2014 4.26003 11.3442 4.42054 11.6706C4.98232 12.8126 5.7797 13.8221 6.75993 14.6323C7.74015 15.4425 8.88089 16.0349 10.1067 16.3705C10.8613 16.5865 11.6519 16.6945 12.4784 16.6945C13.0618 16.6945 13.6212 16.6393 14.1638 16.5373C14.51 16.4725 14.8537 16.6933 14.8681 17.0461C14.8729 17.1302 14.8741 17.213 14.8741 17.2946V17.2958Z" fill="url(#paint1_linear_139_2)"/>
<defs>
<linearGradient id="paint0_linear_139_2" x1="14.9172" y1="0.5" x2="14.9172" y2="24.5" gradientUnits="userSpaceOnUse">
<stop stop-color="#2F08CA"/>
<stop offset="1" stop-color="#76049E"/>
</linearGradient>
<linearGradient id="paint1_linear_139_2" x1="7.68705" y1="11.3123" x2="7.68705" y2="24.4967" gradientUnits="userSpaceOnUse">
<stop stop-color="#2F08CA"/>
<stop offset="1" stop-color="#76049E"/>
</linearGradient>
</defs>
</svg>
