<svg width="26" height="31" viewBox="0 0 26 31" fill="none" xmlns="http://www.w3.org/2000/svg">
<path d="M12.5891 4.59597C5.64842 4.59597 0 10.3682 0 17.4611C0 24.554 5.64842 30.3411 12.5891 30.3411C19.5299 30.3411 25.1783 24.5689 25.1783 17.476C25.1783 10.3831 19.5299 4.59597 12.5891 4.59597ZM13.6782 16.9863C13.6782 17.5947 13.1845 18.0992 12.5891 18.0992C11.9938 18.0992 11.5001 17.5947 11.5001 16.9863V9.56694C11.5001 8.95855 11.9938 8.45403 12.5891 8.45403C13.1845 8.45403 13.6782 8.95855 13.6782 9.56694V16.9863ZM16.7855 2.8183H8.39276C7.81195 2.8183 7.3473 2.34346 7.3473 1.74991C7.3473 1.15636 7.81195 0.666687 8.39276 0.666687H16.7855C17.3663 0.666687 17.831 1.14153 17.831 1.73507C17.831 2.32862 17.3663 2.8183 16.7855 2.8183Z" fill="url(#paint0_linear_284_71)"/>
<defs>
<linearGradient id="paint0_linear_284_71" x1="31.8181" y1="1.97106" x2="31.8181" y2="31.6455" gradientUnits="userSpaceOnUse">
<stop stop-color="#2F08CA"/>
<stop offset="1" stop-color="#76049E"/>
</linearGradient>
</defs>
</svg>