<svg width="24" height="20" viewBox="0 0 24 20" fill="none" xmlns="http://www.w3.org/2000/svg">
<path d="M22.4873 16.4644C22.0264 16.7083 21.0598 16.9633 19.7446 16.0541L18.0923 14.901C17.9687 18.3494 16.4513 19.7021 12.7644 19.7021H6.02028C2.17611 19.7021 0.681152 18.2274 0.681152 14.4352V5.56473C0.681152 3.01446 2.08619 0.297863 6.02028 0.297863H12.7644C16.4513 0.297863 17.9687 1.65062 18.0923 5.09903L19.7446 3.94586C20.4415 3.45798 21.0485 3.30275 21.5319 3.30275C21.9477 3.30275 22.2737 3.42472 22.4873 3.5356C22.9481 3.76845 23.7237 4.40048 23.7237 5.98608V14.0139C23.7237 15.5995 22.9481 16.2315 22.4873 16.4644ZM11.0784 10.6875C9.92065 10.6875 8.96523 11.6189 8.96523 12.772C8.96523 13.9252 9.92065 14.8566 11.0784 14.8566C12.2361 14.8566 13.1916 13.9252 13.1916 12.772C13.1916 11.6189 12.2361 10.6875 11.0784 10.6875Z" fill="url(#paint0_linear_281_13)"/>
<defs>
<linearGradient id="paint0_linear_281_13" x1="12.2024" y1="19.7021" x2="12.2024" y2="0.297863" gradientUnits="userSpaceOnUse">
<stop stop-color="#3B07C2"/>
<stop offset="1" stop-color="#6C04A5"/>
</linearGradient>
</defs>
</svg>