<svg width="25" height="25" viewBox="0 0 25 25" fill="none" xmlns="http://www.w3.org/2000/svg">
<path d="M17.75 0.531921H7.58191C3.16524 0.531921 0.532227 3.16362 0.532227 7.57809V17.7289C0.532227 22.1555 3.16524 24.7872 7.58191 24.7872H17.7378C22.1545 24.7872 24.7875 22.1555 24.7875 17.7411V7.57809C24.7996 3.16362 22.1666 0.531921 17.75 0.531921ZM16.0512 18.2383C15.8692 18.4687 15.6023 18.59 15.3353 18.59C15.1412 18.59 14.9471 18.5294 14.7772 18.396C13.491 17.4015 11.8287 17.4015 10.5425 18.396C10.1421 18.6992 9.57184 18.6264 9.26849 18.2383C8.96515 17.8381 9.03795 17.2681 9.42623 16.9649C10.3458 16.2402 11.4827 15.846 12.6538 15.846C13.8249 15.846 14.9618 16.2402 15.8814 16.9649C16.2939 17.2681 16.3667 17.8381 16.0512 18.2383ZM18.7328 14.4909C18.5508 14.7213 18.2838 14.8426 18.0169 14.8426C17.8228 14.8426 17.6286 14.7819 17.4587 14.6485C14.5467 12.4049 10.7973 12.4049 7.88525 14.6485C7.79124 14.7226 7.68356 14.7774 7.56835 14.8099C7.45314 14.8423 7.33266 14.8518 7.21379 14.8377C7.09492 14.8236 6.97999 14.7863 6.87556 14.7278C6.77113 14.6693 6.67924 14.5909 6.60515 14.4969C6.45551 14.3071 6.38742 14.0657 6.41586 13.8258C6.44431 13.5858 6.56695 13.367 6.75682 13.2175C10.3363 10.4523 14.9713 10.4523 18.5508 13.2175C18.9633 13.5206 19.0361 14.0906 18.7328 14.4909ZM20.662 10.7434C20.48 10.9738 20.2131 11.0951 19.9462 11.0951C19.752 11.0951 19.5579 11.0345 19.388 10.9011C15.2989 7.74788 10.0208 7.74788 5.94386 10.9011C5.54345 11.2043 4.97316 11.1315 4.66982 10.7434C4.36648 10.3432 4.43928 9.7732 4.82756 9.47001C9.58397 5.79533 15.7358 5.79533 20.5043 9.47001C20.9047 9.7732 20.9775 10.3432 20.662 10.7434Z" fill="url(#paint0_linear_284_69)"/>
<defs>
<linearGradient id="paint0_linear_284_69" x1="12.6599" y1="0.531921" x2="12.6599" y2="24.7872" gradientUnits="userSpaceOnUse">
<stop stop-color="#2F08CA"/>
<stop offset="1" stop-color="#76049E"/>
</linearGradient>
</defs>
</svg>
